<svg width="519" height="235" viewBox="0 0 519 235" fill="none" xmlns="http://www.w3.org/2000/svg">
<g filter="url(#filter0_d_1_6)">
<circle cx="110" cy="121" r="100" fill="#F1C83C"/>
<circle cx="110" cy="121" r="103" stroke="#533D4A" stroke-width="6"/>
</g>
<g filter="url(#filter1_d_1_6)">
<path d="M127.85 195H103.85V90H122.15C135.35 90 145.3 92.45 152 97.35C158.7 102.15 162.05 108.95 162.05 117.75C162.05 127.75 157.85 135.1 149.45 139.8C161.65 144.4 167.75 153.05 167.75 165.75C167.75 174.75 164.45 181.9 157.85 187.2C151.25 192.4 141.25 195 127.85 195ZM127.85 190.5C132.55 190.5 136.85 190.15 140.75 189.45C144.65 188.65 148.35 187.4 151.85 185.7C155.45 183.9 158.25 181.3 160.25 177.9C162.25 174.5 163.25 170.45 163.25 165.75C163.25 155.05 158.1 147.8 147.8 144L138.8 140.7L147.2 135.9C154.1 132.1 157.55 126.05 157.55 117.75C157.55 102.25 145.75 94.5 122.15 94.5H108.35V190.5H127.85ZM233.915 112.65C230.515 111.55 226.315 111 221.315 111C216.315 111 212.115 111.55 208.715 112.65C205.315 113.65 202.165 115.6 199.265 118.5C196.465 121.3 194.365 125.45 192.965 130.95C191.565 136.35 190.865 143.2 190.865 151.5C190.865 159.8 191.565 166.7 192.965 172.2C194.365 177.6 196.465 181.75 199.265 184.65C202.165 187.45 205.315 189.4 208.715 190.5C212.115 191.5 216.315 192 221.315 192C226.315 192 230.515 191.5 233.915 190.5C237.315 189.4 240.415 187.45 243.215 184.65C246.115 181.75 248.265 177.6 249.665 172.2C251.065 166.7 251.765 159.8 251.765 151.5C251.765 143.2 251.065 136.35 249.665 130.95C248.265 125.45 246.115 121.3 243.215 118.5C240.415 115.6 237.315 113.65 233.915 112.65ZM248.165 185.85C242.765 192.95 233.815 196.5 221.315 196.5C208.815 196.5 199.865 192.95 194.465 185.85C189.065 178.75 186.365 167.3 186.365 151.5C186.365 135.7 189.065 124.25 194.465 117.15C199.865 110.05 208.815 106.5 221.315 106.5C233.815 106.5 242.765 110.05 248.165 117.15C253.565 124.25 256.265 135.7 256.265 151.5C256.265 167.3 253.565 178.75 248.165 185.85ZM289.032 190.5H337.932L307.182 118.05L274.482 195H269.682L307.182 106.5L344.682 195H289.032V190.5ZM398.395 151.35L418.795 195H413.845L392.845 150C393.045 149.9 393.895 149.5 395.395 148.8C396.995 148 398.095 147.45 398.695 147.15C399.295 146.75 400.295 146.1 401.695 145.2C403.095 144.3 404.145 143.45 404.845 142.65C405.545 141.75 406.295 140.75 407.095 139.65C407.995 138.45 408.645 137.15 409.045 135.75C409.445 134.25 409.645 132.65 409.645 130.95C409.645 124.65 406.645 120 400.645 117C394.645 114 387.195 112.5 378.295 112.5H366.295V195H361.795V108H378.295C390.095 108 398.995 110.05 404.995 114.15C411.095 118.25 414.145 123.85 414.145 130.95C414.145 135.55 412.595 139.65 409.495 143.25C406.395 146.75 402.695 149.45 398.395 151.35ZM450.539 195H439.139V108H450.539C465.339 108 477.139 111.9 485.939 119.7C494.739 127.5 499.139 138.1 499.139 151.5C499.139 164.9 494.739 175.5 485.939 183.3C477.139 191.1 465.339 195 450.539 195ZM450.539 190.5C464.039 190.5 474.739 187.05 482.639 180.15C490.639 173.25 494.639 163.7 494.639 151.5C494.639 139.3 490.639 129.75 482.639 122.85C474.739 115.95 464.039 112.5 450.539 112.5H443.639V190.5H450.539Z" fill="#2B9F5E"/>
</g>
<g filter="url(#filter2_d_1_6)">
<path d="M121.9 55.15C119.6 49.35 116.35 44.9 112.15 41.8C107.95 38.6 101.4 37 92.5 37C87.6 37 83.4 37.65 79.9 38.95C76.4 40.15 73.25 42.25 70.45 45.25C67.65 48.25 65.55 52.6 64.15 58.3C62.75 63.9 62.05 70.85 62.05 79.15V93.85C62.05 102.15 62.75 109.15 64.15 114.85C65.55 120.45 67.65 124.75 70.45 127.75C73.25 130.75 76.4 132.9 79.9 134.2C83.4 135.4 87.6 136 92.5 136C101.5 136 108.65 134.1 113.95 130.3C119.25 126.4 121.9 122.25 121.9 117.85V92.5H103.45V88H127.3V116.35C127.3 123.05 124.25 128.75 118.15 133.45C112.15 138.15 103.6 140.5 92.5 140.5C80.2 140.5 71.3 136.75 65.8 129.25C60.3 121.65 57.55 109.85 57.55 93.85V79.15C57.55 63.15 60.3 51.4 65.8 43.9C71.3 36.3 80.2 32.5 92.5 32.5C102.4 32.5 109.8 34.35 114.7 38.05C119.6 41.65 123.4 46.8 126.1 53.5L121.9 55.15ZM160.485 134.5H209.385L178.635 62.05L145.935 139H141.135L178.635 50.5L216.135 139H160.485V134.5ZM247.348 134.5H305.248V58.3L271.498 92.05L237.748 58.3V139L233.248 138.85V52H237.748L271.498 85.75L305.248 52H309.748V139L247.348 138.85V134.5ZM396.477 130.15C390.977 137.05 381.977 140.5 369.477 140.5C356.977 140.5 348.027 136.95 342.627 129.85C337.227 122.75 334.527 111.3 334.527 95.5C334.527 79.7 337.227 68.25 342.627 61.15C348.027 54.05 356.977 50.5 369.477 50.5C383.977 50.5 393.827 55.25 399.027 64.75L362.277 95.5H355.227L393.177 63.85C388.777 57.95 380.877 55 369.477 55C364.477 55 360.277 55.55 356.877 56.65C353.477 57.65 350.327 59.6 347.427 62.5C344.627 65.3 342.527 69.45 341.127 74.95C339.727 80.35 339.027 87.2 339.027 95.5C339.027 103.8 339.727 110.7 341.127 116.2C342.527 121.6 344.627 125.75 347.427 128.65C350.327 131.45 353.477 133.4 356.877 134.5C360.277 135.5 364.477 136 369.477 136C380.877 136 388.777 133.05 393.177 127.15L396.477 130.15Z" fill="#FF6347"/>
</g>
<defs>
<filter id="filter0_d_1_6" x="0" y="15" width="220" height="220" filterUnits="userSpaceOnUse" color-interpolation-filters="sRGB">
<feFlood flood-opacity="0" result="BackgroundImageFix"/>
<feColorMatrix in="SourceAlpha" type="matrix" values="0 0 0 0 0 0 0 0 0 0 0 0 0 0 0 0 0 0 127 0" result="hardAlpha"/>
<feOffset dy="4"/>
<feGaussianBlur stdDeviation="2"/>
<feComposite in2="hardAlpha" operator="out"/>
<feColorMatrix type="matrix" values="0 0 0 0 0 0 0 0 0 0 0 0 0 0 0 0 0 0 0.25 0"/>
<feBlend mode="normal" in2="BackgroundImageFix" result="effect1_dropShadow_1_6"/>
<feBlend mode="normal" in="SourceGraphic" in2="effect1_dropShadow_1_6" result="shape"/>
</filter>
<filter id="filter1_d_1_6" x="99.85" y="90" width="403.289" height="114.5" filterUnits="userSpaceOnUse" color-interpolation-filters="sRGB">
<feFlood flood-opacity="0" result="BackgroundImageFix"/>
<feColorMatrix in="SourceAlpha" type="matrix" values="0 0 0 0 0 0 0 0 0 0 0 0 0 0 0 0 0 0 127 0" result="hardAlpha"/>
<feOffset dy="4"/>
<feGaussianBlur stdDeviation="2"/>
<feComposite in2="hardAlpha" operator="out"/>
<feColorMatrix type="matrix" values="0 0 0 0 0 0 0 0 0 0 0 0 0 0 0 0 0 0 0.25 0"/>
<feBlend mode="normal" in2="BackgroundImageFix" result="effect1_dropShadow_1_6"/>
<feBlend mode="normal" in="SourceGraphic" in2="effect1_dropShadow_1_6" result="shape"/>
</filter>
<filter id="filter2_d_1_6" x="53.55" y="32.5" width="349.477" height="116" filterUnits="userSpaceOnUse" color-interpolation-filters="sRGB">
<feFlood flood-opacity="0" result="BackgroundImageFix"/>
<feColorMatrix in="SourceAlpha" type="matrix" values="0 0 0 0 0 0 0 0 0 0 0 0 0 0 0 0 0 0 127 0" result="hardAlpha"/>
<feOffset dy="4"/>
<feGaussianBlur stdDeviation="2"/>
<feComposite in2="hardAlpha" operator="out"/>
<feColorMatrix type="matrix" values="0 0 0 0 0 0 0 0 0 0 0 0 0 0 0 0 0 0 0.25 0"/>
<feBlend mode="normal" in2="BackgroundImageFix" result="effect1_dropShadow_1_6"/>
<feBlend mode="normal" in="SourceGraphic" in2="effect1_dropShadow_1_6" result="shape"/>
</filter>
</defs>
</svg>
