<svg width="301" height="220" viewBox="0 0 301 220" fill="none" xmlns="http://www.w3.org/2000/svg">
<g filter="url(#filter0_d_1_6)">
<circle cx="110" cy="106" r="100" fill="#F1C83C"/>
<circle cx="110" cy="106" r="103" stroke="#533D4A" stroke-width="6"/>
</g>
<path d="M37.576 146H27.336V101.2H35.144C40.776 101.2 45.0213 102.245 47.88 104.336C50.7387 106.384 52.168 109.285 52.168 113.04C52.168 117.307 50.376 120.443 46.792 122.448C51.9973 124.411 54.6 128.101 54.6 133.52C54.6 137.36 53.192 140.411 50.376 142.672C47.56 144.891 43.2933 146 37.576 146ZM37.576 144.08C39.5813 144.08 41.416 143.931 43.08 143.632C44.744 143.291 46.3227 142.757 47.816 142.032C49.352 141.264 50.5467 140.155 51.4 138.704C52.2533 137.253 52.68 135.525 52.68 133.52C52.68 128.955 50.4827 125.861 46.088 124.24L42.248 122.832L45.832 120.784C48.776 119.163 50.248 116.581 50.248 113.04C50.248 106.427 45.2133 103.12 35.144 103.12H29.256V144.08H37.576ZM82.8305 110.864C81.3798 110.395 79.5878 110.16 77.4545 110.16C75.3212 110.16 73.5292 110.395 72.0785 110.864C70.6278 111.291 69.2838 112.123 68.0465 113.36C66.8518 114.555 65.9558 116.325 65.3585 118.672C64.7612 120.976 64.4625 123.899 64.4625 127.44C64.4625 130.981 64.7612 133.925 65.3585 136.272C65.9558 138.576 66.8518 140.347 68.0465 141.584C69.2838 142.779 70.6278 143.611 72.0785 144.08C73.5292 144.507 75.3212 144.72 77.4545 144.72C79.5878 144.72 81.3798 144.507 82.8305 144.08C84.2812 143.611 85.6038 142.779 86.7985 141.584C88.0358 140.347 88.9532 138.576 89.5505 136.272C90.1478 133.925 90.4465 130.981 90.4465 127.44C90.4465 123.899 90.1478 120.976 89.5505 118.672C88.9532 116.325 88.0358 114.555 86.7985 113.36C85.6038 112.123 84.2812 111.291 82.8305 110.864ZM88.9105 142.096C86.6065 145.125 82.7878 146.64 77.4545 146.64C72.1212 146.64 68.3025 145.125 65.9985 142.096C63.6945 139.067 62.5425 134.181 62.5425 127.44C62.5425 120.699 63.6945 115.813 65.9985 112.784C68.3025 109.755 72.1212 108.24 77.4545 108.24C82.7878 108.24 86.6065 109.755 88.9105 112.784C91.2145 115.813 92.3665 120.699 92.3665 127.44C92.3665 134.181 91.2145 139.067 88.9105 142.096ZM106.347 144.08H127.211L114.091 113.168L100.139 146H98.091L114.091 108.24L130.091 146H106.347V144.08ZM153.009 127.376L161.713 146H159.601L150.641 126.8C150.726 126.757 151.089 126.587 151.729 126.288C152.411 125.947 152.881 125.712 153.137 125.584C153.393 125.413 153.819 125.136 154.417 124.752C155.014 124.368 155.462 124.005 155.761 123.664C156.059 123.28 156.379 122.853 156.721 122.384C157.105 121.872 157.382 121.317 157.553 120.72C157.723 120.08 157.809 119.397 157.809 118.672C157.809 115.984 156.529 114 153.969 112.72C151.409 111.44 148.23 110.8 144.433 110.8H139.312V146H137.393V108.88H144.433C149.467 108.88 153.265 109.755 155.825 111.504C158.427 113.253 159.729 115.643 159.729 118.672C159.729 120.635 159.067 122.384 157.745 123.92C156.422 125.413 154.843 126.565 153.009 127.376ZM175.257 146H170.393V108.88H175.257C181.571 108.88 186.606 110.544 190.361 113.872C194.115 117.2 195.993 121.723 195.993 127.44C195.993 133.157 194.115 137.68 190.361 141.008C186.606 144.336 181.571 146 175.257 146ZM175.257 144.08C181.017 144.08 185.582 142.608 188.953 139.664C192.366 136.72 194.073 132.645 194.073 127.44C194.073 122.235 192.366 118.16 188.953 115.216C185.582 112.272 181.017 110.8 175.257 110.8H172.312V144.08H175.257Z" fill="#2B9F5E"/>
<path d="M53.384 72.224C52.4027 69.7493 51.016 67.8507 49.224 66.528C47.432 65.1627 44.6373 64.48 40.84 64.48C38.7493 64.48 36.9573 64.7573 35.464 65.312C33.9707 65.824 32.6267 66.72 31.432 68C30.2373 69.28 29.3413 71.136 28.744 73.568C28.1467 75.9573 27.848 78.9227 27.848 82.464V88.736C27.848 92.2773 28.1467 95.264 28.744 97.696C29.3413 100.085 30.2373 101.92 31.432 103.2C32.6267 104.48 33.9707 105.397 35.464 105.952C36.9573 106.464 38.7493 106.72 40.84 106.72C44.68 106.72 47.7307 105.909 49.992 104.288C52.2533 102.624 53.384 100.853 53.384 98.976V88.16H45.512V86.24H55.688V98.336C55.688 101.195 54.3867 103.627 51.784 105.632C49.224 107.637 45.576 108.64 40.84 108.64C35.592 108.64 31.7947 107.04 29.448 103.84C27.1013 100.597 25.928 95.5627 25.928 88.736V82.464C25.928 75.6373 27.1013 70.624 29.448 67.424C31.7947 64.1813 35.592 62.56 40.84 62.56C45.064 62.56 48.2213 63.3493 50.312 64.928C52.4027 66.464 54.024 68.6613 55.176 71.52L53.384 72.224ZM69.847 106.08H90.711L77.591 75.168L63.639 108H61.591L77.591 70.24L93.591 108H69.847V106.08ZM106.909 106.08H131.613V73.568L117.213 87.968L102.812 73.568V108L100.893 107.936V70.88H102.812L117.213 85.28L131.613 70.88H133.533V108L106.909 107.936V106.08ZM170.537 104.224C168.19 107.168 164.35 108.64 159.017 108.64C153.684 108.64 149.865 107.125 147.561 104.096C145.257 101.067 144.105 96.1813 144.105 89.44C144.105 82.6987 145.257 77.8133 147.561 74.784C149.865 71.7547 153.684 70.24 159.017 70.24C165.204 70.24 169.406 72.2667 171.625 76.32L155.945 89.44H152.937L169.129 75.936C167.252 73.4187 163.881 72.16 159.017 72.16C156.884 72.16 155.092 72.3947 153.641 72.864C152.19 73.2907 150.846 74.1227 149.609 75.36C148.414 76.5547 147.518 78.3253 146.921 80.672C146.324 82.976 146.025 85.8987 146.025 89.44C146.025 92.9813 146.324 95.9253 146.921 98.272C147.518 100.576 148.414 102.347 149.609 103.584C150.846 104.779 152.19 105.611 153.641 106.08C155.092 106.507 156.884 106.72 159.017 106.72C163.881 106.72 167.252 105.461 169.129 102.944L170.537 104.224Z" fill="#FF6347"/>
<defs>
<filter id="filter0_d_1_6" x="0" y="0" width="220" height="220" filterUnits="userSpaceOnUse" color-interpolation-filters="sRGB">
<feFlood flood-opacity="0" result="BackgroundImageFix"/>
<feColorMatrix in="SourceAlpha" type="matrix" values="0 0 0 0 0 0 0 0 0 0 0 0 0 0 0 0 0 0 127 0" result="hardAlpha"/>
<feOffset dy="4"/>
<feGaussianBlur stdDeviation="2"/>
<feComposite in2="hardAlpha" operator="out"/>
<feColorMatrix type="matrix" values="0 0 0 0 0 0 0 0 0 0 0 0 0 0 0 0 0 0 0.25 0"/>
<feBlend mode="normal" in2="BackgroundImageFix" result="effect1_dropShadow_1_6"/>
<feBlend mode="normal" in="SourceGraphic" in2="effect1_dropShadow_1_6" result="shape"/>
</filter>
</defs>
</svg>
